<svg xmlns="http://www.w3.org/2000/svg" viewBox="0 0 320 130" role="img" aria-label="CAPI - capi-gear.com">
  <rect x="0" y="0" width="320" height="130" rx="2" fill="#000"/>

  <text x="18" y="78" font-family="'Helvetica Neue', Arial, sans-serif" font-weight="900" font-size="64" letter-spacing="-1" fill="#FFFFFF">CAPI</text>
  <text x="14" y="118" font-family="'Helvetica Neue', Arial, sans-serif" font-weight="700" font-size="18" fill="#007DC5">capi-gear.com</text>
  <text x="306" y="122" text-anchor="middle" font-family="'Helvetica Neue', Arial, sans-serif" font-weight="600" font-size="14" fill="#FFFFFF">®</text>

  <defs>
    <linearGradient id="capi-plate" x1="0%" y1="0%" x2="100%" y2="100%">
      <stop offset="0%" stop-color="#E6E6E6"/>
      <stop offset="50%" stop-color="#B8B8B8"/>
      <stop offset="100%" stop-color="#5E5E5E"/>
    </linearGradient>
    <radialGradient id="capi-knob" cx="40%" cy="35%" r="75%">
      <stop offset="0%" stop-color="#3FB5F0"/>
      <stop offset="55%" stop-color="#007DC5"/>
      <stop offset="100%" stop-color="#004A7A"/>
    </radialGradient>
    <radialGradient id="capi-screw" cx="35%" cy="30%" r="80%">
      <stop offset="0%" stop-color="#8a8a8a"/>
      <stop offset="60%" stop-color="#4a4a4a"/>
      <stop offset="100%" stop-color="#1a1a1a"/>
    </radialGradient>
  </defs>

  <g class="capi-spinner" transform="rotate(0 230 55)">
    <path d="M 208,5 L 282,3 L 283,4 L 280,77 Q 259,84 252,105 L 208,105 Q 201,84 180,77 L 180,33 Q 201,26 208,5 Z" fill="url(#capi-plate)" stroke="#1a1a1a" stroke-width="1.4"/>
    <path d="M 211,8 L 278,6 L 279,7 L 277,75 Q 257,82 250,102 L 210,102 Q 203,82 183,75 L 183,35 Q 204,28 211,8 Z" fill="none" stroke="#7a7a7a" stroke-width="0.6" opacity="0.7"/>

    <g>
      <circle cx="275" cy="13" r="3.4" fill="#2a2a2a" stroke="#0a0a0a" stroke-width="0.8"/>
      <circle cx="275" cy="13" r="2.1" fill="url(#capi-screw)"/>
      <line x1="272.5" y1="13" x2="277.5" y2="13" stroke="#000" stroke-width="0.9" stroke-linecap="round"/>
    </g>

    <circle cx="230" cy="55" r="40" fill="#0a3640"/>
    <circle cx="230" cy="55" r="38" fill="url(#capi-knob)"/>
    <ellipse cx="218" cy="42" rx="14" ry="9" fill="#ffffff" fill-opacity="0.22"/>
    <circle cx="230" cy="24" r="2.4" fill="#ffffff" fill-opacity="0.95"/>
  </g>
</svg>
